# xmcd
#
# Track frame offsets:
#	150
#	13091
#	27267
#	44983
#	58539
#	70881
#	84419
#	99837
#	113118
#	130722
#	146410
#	159815
#	173105
#	188843
#
# Disc length: 2731 seconds
#
# Revision: 2
# Processed by: cddbd v1.5.2PL0 Copyright (c) Steve Scherf et al.
# Submitted via: audiograbber 1.83.01
#
DISCID=b20aa90e
DTITLE=VARIOS - BAILÃO SERTANEJO-3
DYEAR=2009
DGENRE=Country
TTITLE0=Nóis Bebe é Guaraná - Cesar Menotti and Fabiano
TTITLE1=Galera Coração - Edson and Hudson
TTITLE2=Galera Felicidade/Ô Trem Bão - Zezé Di Camargo and L
TTITLE3=Credo em Cruz Ave Maria - Bruno and Marrone
TTITLE4=Rola Pinga - Leonardo
TTITLE5=Moreninha Linda - Daniel
TTITLE6=Que Saudade Matadeira - Cezar and Paulinho
TTITLE7=Bobeou... a Gente Pimba - Edson and Hudson
TTITLE8=Lorota - Gino and Geno
TTITLE9=Se a Casa Cair - Teodoro and Sampaio
TTITLE10=Tá Nervoso...Vai Pescá - Ataíde and Alexandre
TTITLE11=Que Nem Chiclete - Rick and Renner
TTITLE12=Cerveja - Leandro and Leonardo
TTITLE13=Deixei de Ser Cowboy por Ela - Chitãozinho and Xoror
EXTD=
EXTT0=
EXTT1=
EXTT2=
EXTT3=
EXTT4=
EXTT5=
EXTT6=
EXTT7=
EXTT8=
EXTT9=
EXTT10=
EXTT11=
EXTT12=
EXTT13=
PLAYORDER=
